<svg viewBox="0 0 600 340" xmlns="http://www.w3.org/2000/svg">
  <rect width="600" height="340" fill="#cfe3f7"/>
  <rect y="220" width="600" height="120" fill="#8a8f98"/>
  <rect y="215" width="600" height="6" fill="#ffffff" opacity="0.6"/>

  <rect x="20" y="60" width="80" height="160" fill="#6b7280"/>
  <rect x="500" y="40" width="80" height="180" fill="#6b7280"/>
  <rect x="150" y="90" width="60" height="130" fill="#9ca3af"/>

  <rect x="90" y="190" width="90" height="45" rx="4" fill="#dc2626"/>
  <rect x="85" y="185" width="100" height="55" fill="none" stroke="#dc2626" stroke-width="3"/>
  <text x="85" y="180" font-family="monospace" font-size="12" fill="#dc2626">Car</text>

  <rect x="260" y="60" width="14" height="90" fill="#374151"/>
  <circle cx="267" cy="55" r="10" fill="#facc15"/>
  <rect x="245" y="40" width="44" height="90" fill="none" stroke="#f59e0b" stroke-width="3"/>
  <text x="245" y="35" font-family="monospace" font-size="12" fill="#f59e0b">Traffic Light</text>

  <circle cx="340" cy="185" r="10" fill="#1f2937"/>
  <rect x="332" y="195" width="16" height="30" fill="#1f2937"/>
  <rect x="320" y="180" width="40" height="70" fill="none" stroke="#16a34a" stroke-width="3"/>
  <text x="320" y="175" font-family="monospace" font-size="12" fill="#16a34a">Pedestrian</text>

  <circle cx="420" cy="220" r="14" fill="none" stroke="#1f2937" stroke-width="3"/>
  <circle cx="460" cy="220" r="14" fill="none" stroke="#1f2937" stroke-width="3"/>
  <line x1="420" y1="220" x2="440" y2="195" stroke="#1f2937" stroke-width="3"/>
  <line x1="440" y1="195" x2="460" y2="220" stroke="#1f2937" stroke-width="3"/>
  <rect x="400" y="180" width="80" height="60" fill="none" stroke="#2563eb" stroke-width="3"/>
  <text x="400" y="175" font-family="monospace" font-size="12" fill="#2563eb">Bicycle</text>

  <text x="15" y="20" font-family="monospace" font-size="13" fill="#1f2937">Sample Image: Street Scene</text>
</svg>
